<?xml version="1.0" encoding="UTF-8" standalone="no"?>
<!DOCTYPE svg PUBLIC "-//W3C//DTD SVG 1.1//EN"
 "http://www.w3.org/Graphics/SVG/1.1/DTD/svg11.dtd">
<!-- Generated by graphviz version 2.26.3 (20100126.1600)
 -->
<!-- Title: D Pages: 1 -->
<svg width="1600pt" height="500pt"
 viewBox="0.00 0.00 1600.00 500.00" xmlns="http://www.w3.org/2000/svg" xmlns:xlink="http://www.w3.org/1999/xlink">
<g id="graph1" class="graph" transform="scale(1 1) rotate(0) translate(4 496)">
<title>D</title>
<polygon fill="white" stroke="white" points="-4,5 -4,-496 1597,-496 1597,5 -4,5"/>
<g id="graph4" class="cluster"><title>cluster_C</title>
<polygon fill="none" stroke="black" points="8,-8 8,-84 272,-84 272,-8 8,-8"/>
<text text-anchor="middle" x="140" y="-67.4" font-family="Times New Roman,serif" font-size="14.00">ICodingRule</text>
</g>
<g id="graph7" class="cluster"><title>cluster_R</title>
<polygon fill="none" stroke="black" points="497,-228 497,-304 1109,-304 1109,-228 497,-228"/>
<text text-anchor="middle" x="803" y="-287.4" font-family="Times New Roman,serif" font-size="14.00">Encoding</text>
</g>
<!-- File -->
<g id="node1" class="node"><title>File</title>
<ellipse fill="none" stroke="black" cx="286" cy="-402" rx="27" ry="18"/>
<text text-anchor="middle" x="286" y="-397.4" font-family="Times New Roman,serif" font-size="14.00">File</text>
</g>
<!-- BinaryStdIn -->
<g id="node6" class="node"><title>BinaryStdIn</title>
<ellipse fill="none" stroke="black" cx="151" cy="-330" rx="55.1765" ry="18"/>
<text text-anchor="middle" x="151" y="-325.4" font-family="Times New Roman,serif" font-size="14.00">BinaryStdIn</text>
</g>
<!-- File&#45;&gt;BinaryStdIn -->
<g id="edge8" class="edge"><title>File&#45;&gt;BinaryStdIn</title>
<path fill="none" stroke="black" d="M264.906,-390.75C244.653,-379.948 213.597,-363.385 189.025,-350.28"/>
<polygon fill="black" stroke="black" points="190.432,-347.064 179.961,-345.446 187.137,-353.24 190.432,-347.064"/>
</g>
<!-- FileSymbol -->
<g id="node19" class="node"><title>FileSymbol</title>
<ellipse fill="none" stroke="black" cx="419" cy="-330" rx="53.1641" ry="18"/>
<text text-anchor="middle" x="419" y="-325.4" font-family="Times New Roman,serif" font-size="14.00">FileSymbol</text>
</g>
<!-- File&#45;&gt;FileSymbol -->
<g id="edge19" class="edge"><title>File&#45;&gt;FileSymbol</title>
<path fill="none" stroke="black" d="M316.113,-385.698C335.566,-375.167 361.02,-361.387 381.744,-350.169"/>
<polygon fill="black" stroke="black" points="314.202,-382.753 307.074,-390.591 317.535,-388.909 314.202,-382.753"/>
<polygon fill="black" stroke="black" points="383.47,-353.214 390.598,-345.375 380.138,-347.058 383.47,-353.214"/>
</g>
<!-- ICode -->
<g id="node2" class="node"><title>ICode</title>
<polygon fill="none" stroke="black" points="213,-200 164.167,-182 213,-164 261.833,-182 213,-200"/>
<text text-anchor="middle" x="213" y="-177.4" font-family="Times New Roman,serif" font-size="14.00">ICode</text>
</g>
<!-- ISymbol -->
<g id="node3" class="node"><title>ISymbol</title>
<polygon fill="none" stroke="black" points="419,-200 357.837,-182 419,-164 480.163,-182 419,-200"/>
<text text-anchor="middle" x="419" y="-177.4" font-family="Times New Roman,serif" font-size="14.00">ISymbol</text>
</g>
<!-- ICode&#45;&gt;ISymbol -->
<g id="edge33" class="edge"><title>ICode&#45;&gt;ISymbol</title>
<path fill="none" stroke="black" d="M254.018,-188.586C293.75,-194.909 333.785,-195.138 373.516,-189.269"/>
<path fill="none" stroke="none" d="M253.705,-190.562C293.739,-196.909 333.773,-197.138 373.807,-191.248"/>
<path fill="none" stroke="black" d="M253.392,-192.537C293.728,-198.909 333.762,-199.137 374.098,-193.226"/>
<polygon fill="none" stroke="none" points="254.026,-187.066 243.578,-188.826 252.843,-193.965 254.026,-187.066"/>
<polygon fill="black" stroke="black" points="374.387,-194.7 383.71,-189.666 373.283,-187.787 374.387,-194.7"/>
</g>
<!-- ICodingRule -->
<g id="node4" class="node"><title>ICodingRule</title>
<polygon fill="none" stroke="black" points="213,-128 130.016,-110 213,-92 295.984,-110 213,-128"/>
<text text-anchor="middle" x="213" y="-105.4" font-family="Times New Roman,serif" font-size="14.00">ICodingRule</text>
</g>
<!-- ICode&#45;&gt;ICodingRule -->
<g id="edge13" class="edge"><title>ICode&#45;&gt;ICodingRule</title>
<path fill="none" stroke="black" stroke-width="3" d="M213,-153.573C213,-148.679 213,-143.59 213,-138.69"/>
<polygon fill="black" stroke="black" points="209.5,-153.831 213,-163.831 216.5,-153.831 209.5,-153.831"/>
<polygon fill="black" stroke="black" points="216.5,-138.413 213,-128.413 209.5,-138.413 216.5,-138.413"/>
</g>
<!-- ISymbol&#45;&gt;ICode -->
<g id="edge31" class="edge"><title>ISymbol&#45;&gt;ICode</title>
<path fill="none" stroke="black" d="M373.516,-174.731C333.785,-168.862 293.75,-169.091 254.018,-175.414"/>
<path fill="none" stroke="none" d="M373.807,-172.752C333.773,-166.862 293.739,-167.091 253.705,-173.438"/>
<path fill="none" stroke="black" d="M374.098,-170.774C333.762,-164.863 293.728,-165.091 253.392,-171.463"/>
<polygon fill="none" stroke="none" points="373.283,-176.213 383.71,-174.334 374.387,-169.3 373.283,-176.213"/>
<polygon fill="black" stroke="black" points="252.843,-170.035 243.578,-175.174 254.026,-176.934 252.843,-170.035"/>
</g>
<!-- ISymbol&#45;&gt;ISymbol -->
<g id="edge17" class="edge"><title>ISymbol&#45;&gt;ISymbol</title>
<path fill="none" stroke="black" d="M444.485,-192.632C469.898,-198.692 498,-195.148 498,-182 498,-170.546 476.676,-166.381 454.381,-169.503"/>
<polygon fill="black" stroke="black" points="453.664,-166.077 444.485,-171.368 454.96,-172.956 453.664,-166.077"/>
</g>
<!-- Symbol -->
<g id="node41" class="node"><title>Symbol</title>
<ellipse fill="none" stroke="black" cx="419" cy="-110" rx="40.2492" ry="18"/>
<text text-anchor="middle" x="419" y="-105.4" font-family="Times New Roman,serif" font-size="14.00">Symbol</text>
</g>
<!-- ISymbol&#45;&gt;Symbol -->
<g id="edge47" class="edge"><title>ISymbol&#45;&gt;Symbol</title>
<path fill="none" stroke="grey" d="M413.239,-165.662C411.983,-154.46 411.923,-139.593 413.06,-128.042"/>
</g>
<!-- ISymbol&#45;&gt;Symbol -->
<g id="edge69" class="edge"><title>ISymbol&#45;&gt;Symbol</title>
<path fill="none" stroke="grey" stroke-dasharray="5,2" d="M424.761,-165.662C425.674,-157.523 425.955,-147.449 425.604,-138.119"/>
<polygon fill="grey" stroke="grey" points="429.09,-137.79 424.94,-128.042 422.105,-138.251 429.09,-137.79"/>
</g>
<!-- CompositeSymbol -->
<g id="node43" class="node"><title>CompositeSymbol</title>
<ellipse fill="none" stroke="black" cx="845" cy="-110" rx="81.8401" ry="18"/>
<text text-anchor="middle" x="845" y="-105.4" font-family="Times New Roman,serif" font-size="14.00">CompositeSymbol</text>
</g>
<!-- ISymbol&#45;&gt;CompositeSymbol -->
<g id="edge49" class="edge"><title>ISymbol&#45;&gt;CompositeSymbol</title>
<path fill="none" stroke="grey" stroke-dasharray="5,2" d="M457.934,-175.42C528.512,-163.491 678.697,-138.108 769.846,-122.702"/>
<polygon fill="grey" stroke="grey" points="770.563,-126.131 779.84,-121.013 769.397,-119.228 770.563,-126.131"/>
</g>
<!-- ICodingRule&#45;&gt;ISymbol -->
<g id="edge15" class="edge"><title>ICodingRule&#45;&gt;ISymbol</title>
<path fill="none" stroke="black" stroke-width="3" d="M254.44,-124.484C291.532,-137.448 345.447,-156.292 381.337,-168.836"/>
<polygon fill="black" stroke="black" points="255.519,-121.154 244.924,-121.158 253.21,-127.762 255.519,-121.154"/>
<polygon fill="black" stroke="black" points="380.194,-172.144 390.789,-172.14 382.503,-165.536 380.194,-172.144"/>
</g>
<!-- HuffmanCode -->
<g id="node32" class="node"><title>HuffmanCode</title>
<ellipse fill="none" stroke="black" cx="80" cy="-34" rx="63.8995" ry="18"/>
<text text-anchor="middle" x="80" y="-29.4" font-family="Times New Roman,serif" font-size="14.00">HuffmanCode</text>
</g>
<!-- ICodingRule&#45;&gt;HuffmanCode -->
<g id="edge36" class="edge"><title>ICodingRule&#45;&gt;HuffmanCode</title>
<path fill="none" stroke="grey" stroke-dasharray="5,2" d="M183.164,-98.4025C173.362,-94.2439 162.54,-89.2702 153,-84 138.579,-76.0332 123.429,-65.9659 110.691,-56.9565"/>
<polygon fill="grey" stroke="grey" points="112.461,-53.9183 102.297,-50.927 108.377,-59.6036 112.461,-53.9183"/>
</g>
<!-- CodingSet -->
<g id="node34" class="node"><title>CodingSet</title>
<ellipse fill="none" stroke="black" cx="213" cy="-34" rx="50.9823" ry="18"/>
<text text-anchor="middle" x="213" y="-29.4" font-family="Times New Roman,serif" font-size="14.00">CodingSet</text>
</g>
<!-- ICodingRule&#45;&gt;CodingSet -->
<g id="edge38" class="edge"><title>ICodingRule&#45;&gt;CodingSet</title>
<path fill="none" stroke="grey" stroke-dasharray="5,2" d="M213,-91.9891C213,-83.1566 213,-72.3099 213,-62.3965"/>
<polygon fill="grey" stroke="grey" points="216.5,-62.145 213,-52.145 209.5,-62.1451 216.5,-62.145"/>
</g>
<!-- IAlgoCompress -->
<g id="node5" class="node"><title>IAlgoCompress</title>
<polygon fill="none" stroke="black" points="703,-348 602.94,-330 703,-312 803.06,-330 703,-348"/>
<text text-anchor="middle" x="703" y="-325.4" font-family="Times New Roman,serif" font-size="14.00">IAlgoCompress</text>
</g>
<!-- List&lt;ISymbol&gt; -->
<g id="node23" class="node"><title>List&lt;ISymbol&gt;</title>
<ellipse fill="none" stroke="black" cx="419" cy="-254" rx="67.9242" ry="18"/>
<text text-anchor="middle" x="419" y="-249.4" font-family="Times New Roman,serif" font-size="14.00">List&lt;ISymbol&gt;</text>
</g>
<!-- IAlgoCompress&#45;&gt;List&lt;ISymbol&gt; -->
<g id="edge44" class="edge"><title>IAlgoCompress&#45;&gt;List&lt;ISymbol&gt;</title>
<path fill="none" stroke="black" stroke-width="3" d="M621.556,-323.844C572.873,-319.403 516.122,-312.669 493,-304 476.565,-297.838 460.195,-287.349 447.046,-277.564"/>
<polygon fill="black" stroke="black" points="621.536,-327.356 631.807,-324.757 622.156,-320.384 621.536,-327.356"/>
<polygon fill="black" stroke="black" points="448.96,-274.62 438.903,-271.289 444.687,-280.165 448.96,-274.62"/>
</g>
<!-- LZW -->
<g id="node64" class="node"><title>LZW</title>
<ellipse fill="none" stroke="black" cx="536" cy="-254" rx="31.0281" ry="18"/>
<text text-anchor="middle" x="536" y="-249.4" font-family="Times New Roman,serif" font-size="14.00">LZW</text>
</g>
<!-- IAlgoCompress&#45;&gt;LZW -->
<g id="edge71" class="edge"><title>IAlgoCompress&#45;&gt;LZW</title>
<path fill="none" stroke="grey" stroke-dasharray="5,2" d="M646.018,-322.199C618.072,-317.609 587.903,-311.281 576,-304 566.227,-298.021 557.839,-288.753 551.306,-279.812"/>
<polygon fill="grey" stroke="grey" points="554.144,-277.76 545.626,-271.459 548.355,-281.696 554.144,-277.76"/>
</g>
<!-- PIECompress -->
<g id="node66" class="node"><title>PIECompress</title>
<ellipse fill="none" stroke="black" cx="648" cy="-254" rx="63.2261" ry="18"/>
<text text-anchor="middle" x="648" y="-249.4" font-family="Times New Roman,serif" font-size="14.00">PIECompress</text>
</g>
<!-- IAlgoCompress&#45;&gt;PIECompress -->
<g id="edge73" class="edge"><title>IAlgoCompress&#45;&gt;PIECompress</title>
<path fill="none" stroke="grey" stroke-dasharray="5,2" d="M691.336,-313.882C684.2,-304.021 674.905,-291.178 666.755,-279.916"/>
<polygon fill="grey" stroke="grey" points="669.498,-277.736 660.8,-271.687 663.827,-281.84 669.498,-277.736"/>
</g>
<!-- RLE -->
<g id="node68" class="node"><title>RLE</title>
<ellipse fill="none" stroke="black" cx="758" cy="-254" rx="28.8453" ry="18"/>
<text text-anchor="middle" x="758" y="-249.4" font-family="Times New Roman,serif" font-size="14.00">RLE</text>
</g>
<!-- IAlgoCompress&#45;&gt;RLE -->
<g id="edge75" class="edge"><title>IAlgoCompress&#45;&gt;RLE</title>
<path fill="none" stroke="grey" stroke-dasharray="5,2" d="M714.664,-313.882C722.001,-303.744 731.62,-290.452 739.931,-278.968"/>
<polygon fill="grey" stroke="grey" points="742.945,-280.773 745.973,-270.62 737.274,-276.669 742.945,-280.773"/>
</g>
<!-- TxtCompress -->
<g id="node70" class="node"><title>TxtCompress</title>
<ellipse fill="none" stroke="black" cx="868" cy="-254" rx="63.0571" ry="18"/>
<text text-anchor="middle" x="868" y="-249.4" font-family="Times New Roman,serif" font-size="14.00">TxtCompress</text>
</g>
<!-- IAlgoCompress&#45;&gt;TxtCompress -->
<g id="edge77" class="edge"><title>IAlgoCompress&#45;&gt;TxtCompress</title>
<path fill="none" stroke="grey" stroke-dasharray="5,2" d="M749.508,-320.257C764.718,-316.222 781.437,-310.852 796,-304 811.104,-296.893 826.483,-286.697 839.129,-277.364"/>
<polygon fill="grey" stroke="grey" points="841.553,-279.918 847.409,-271.089 837.325,-274.339 841.553,-279.918"/>
</g>
<!-- PatternCompress -->
<g id="node72" class="node"><title>PatternCompress</title>
<ellipse fill="none" stroke="black" cx="1025" cy="-254" rx="75.8027" ry="18"/>
<text text-anchor="middle" x="1025" y="-249.4" font-family="Times New Roman,serif" font-size="14.00">PatternCompress</text>
</g>
<!-- IAlgoCompress&#45;&gt;PatternCompress -->
<g id="edge79" class="edge"><title>IAlgoCompress&#45;&gt;PatternCompress</title>
<path fill="none" stroke="grey" stroke-dasharray="5,2" d="M776.969,-325.284C834.995,-320.953 910.684,-313.731 940,-304 958.745,-297.778 977.856,-287.01 993.197,-277.057"/>
<polygon fill="grey" stroke="grey" points="995.394,-279.799 1001.76,-271.332 991.504,-273.979 995.394,-279.799"/>
</g>
<!-- List&lt;ICode&gt; -->
<g id="node8" class="node"><title>List&lt;ICode&gt;</title>
<ellipse fill="none" stroke="black" cx="213" cy="-254" rx="59.2013" ry="18"/>
<text text-anchor="middle" x="213" y="-249.4" font-family="Times New Roman,serif" font-size="14.00">List&lt;ICode&gt;</text>
</g>
<!-- BinaryStdIn&#45;&gt;List&lt;ICode&gt; -->
<g id="edge2" class="edge"><title>BinaryStdIn&#45;&gt;List&lt;ICode&gt;</title>
<path fill="none" stroke="black" d="M165.38,-312.373C173.362,-302.589 183.43,-290.247 192.251,-279.434"/>
<polygon fill="black" stroke="black" points="195.089,-281.492 198.698,-271.531 189.665,-277.068 195.089,-281.492"/>
</g>
<!-- List&lt;ICode&gt;&#45;&gt;ICode -->
<g id="edge6" class="edge"><title>List&lt;ICode&gt;&#45;&gt;ICode</title>
<path fill="none" stroke="black" d="M211,-235.831C211,-228.131 211,-218.974 211,-210.417"/>
<path fill="none" stroke="none" d="M213,-235.831C213,-228.131 213,-218.974 213,-210.417"/>
<path fill="none" stroke="black" d="M215,-235.831C215,-228.131 215,-218.974 215,-210.417"/>
<polygon fill="black" stroke="black" points="216.5,-210.413 213,-200.413 209.5,-210.413 216.5,-210.413"/>
</g>
<!-- BinaryStdOut -->
<g id="node10" class="node"><title>BinaryStdOut</title>
<ellipse fill="none" stroke="black" cx="286" cy="-330" rx="61.8872" ry="18"/>
<text text-anchor="middle" x="286" y="-325.4" font-family="Times New Roman,serif" font-size="14.00">BinaryStdOut</text>
</g>
<!-- List&lt;ICode&gt;&#45;&gt;BinaryStdOut -->
<g id="edge4" class="edge"><title>List&lt;ICode&gt;&#45;&gt;BinaryStdOut</title>
<path fill="none" stroke="black" d="M229.839,-271.531C239.405,-281.49 251.539,-294.122 262.078,-305.095"/>
<polygon fill="black" stroke="black" points="259.617,-307.586 269.069,-312.373 264.666,-302.736 259.617,-307.586"/>
</g>
<!-- BinaryStdOut&#45;&gt;File -->
<g id="edge10" class="edge"><title>BinaryStdOut&#45;&gt;File</title>
<path fill="none" stroke="black" d="M286,-348.413C286,-356.059 286,-365.108 286,-373.573"/>
<polygon fill="black" stroke="black" points="282.5,-373.831 286,-383.831 289.5,-373.831 282.5,-373.831"/>
</g>
<!-- FileSymbol&#45;&gt;List&lt;ISymbol&gt; -->
<g id="edge23" class="edge"><title>FileSymbol&#45;&gt;List&lt;ISymbol&gt;</title>
<path fill="none" stroke="black" d="M419,-301.754C419,-295.409 419,-288.675 419,-282.327"/>
<polygon fill="black" stroke="black" points="415.5,-301.989 419,-311.989 422.5,-301.989 415.5,-301.989"/>
<polygon fill="black" stroke="black" points="422.5,-282.145 419,-272.145 415.5,-282.145 422.5,-282.145"/>
</g>
<!-- FilesSymbol -->
<g id="node20" class="node"><title>FilesSymbol</title>
<ellipse fill="none" stroke="black" cx="433" cy="-474" rx="57.1889" ry="18"/>
<text text-anchor="middle" x="433" y="-469.4" font-family="Times New Roman,serif" font-size="14.00">FilesSymbol</text>
</g>
<!-- FilesSymbol&#45;&gt;FileSymbol -->
<g id="edge21" class="edge"><title>FilesSymbol&#45;&gt;FileSymbol</title>
<path fill="none" stroke="black" d="M416.63,-457.447C409.205,-447.333 401.108,-434.251 397.078,-420.555 391.03,-398.625 397.031,-374.563 404.068,-356.34"/>
<path fill="none" stroke="none" d="M418.242,-456.262C410.905,-446.281 402.809,-433.199 399,-420 392.971,-399.109 398.972,-375.047 405.934,-357.062"/>
<path fill="none" stroke="black" d="M419.853,-455.078C412.606,-445.228 404.51,-432.146 400.922,-419.445 394.912,-399.593 400.913,-375.531 407.799,-357.784"/>
<polygon fill="black" stroke="black" points="409.197,-358.33 409.829,-347.754 402.74,-355.627 409.197,-358.33"/>
</g>
<!-- List&lt;FileSymbol&gt; -->
<g id="node25" class="node"><title>List&lt;FileSymbol&gt;</title>
<ellipse fill="none" stroke="black" cx="487" cy="-402" rx="79.1568" ry="18"/>
<text text-anchor="middle" x="487" y="-397.4" font-family="Times New Roman,serif" font-size="14.00">List&lt;FileSymbol&gt;</text>
</g>
<!-- FilesSymbol&#45;&gt;List&lt;FileSymbol&gt; -->
<g id="edge25" class="edge"><title>FilesSymbol&#45;&gt;List&lt;FileSymbol&gt;</title>
<path fill="none" stroke="black" d="M452.515,-447.98C457.33,-441.559 462.49,-434.679 467.314,-428.248"/>
<polygon fill="black" stroke="black" points="449.548,-446.102 446.348,-456.202 455.148,-450.302 449.548,-446.102"/>
<polygon fill="black" stroke="black" points="470.418,-429.943 473.618,-419.843 464.818,-425.743 470.418,-429.943"/>
</g>
<!-- List&lt;ISymbol&gt;&#45;&gt;ISymbol -->
<g id="edge27" class="edge"><title>List&lt;ISymbol&gt;&#45;&gt;ISymbol</title>
<path fill="none" stroke="black" d="M417,-235.831C417,-228.131 417,-218.974 417,-210.417"/>
<path fill="none" stroke="none" d="M419,-235.831C419,-228.131 419,-218.974 419,-210.417"/>
<path fill="none" stroke="black" d="M421,-235.831C421,-228.131 421,-218.974 421,-210.417"/>
<polygon fill="black" stroke="black" points="422.5,-210.413 419,-200.413 415.5,-210.413 422.5,-210.413"/>
</g>
<!-- List&lt;FileSymbol&gt;&#45;&gt;FileSymbol -->
<g id="edge29" class="edge"><title>List&lt;FileSymbol&gt;&#45;&gt;FileSymbol</title>
<path fill="none" stroke="black" d="M468.737,-385.575C460.358,-376.704 450.089,-365.83 440.953,-356.157"/>
<path fill="none" stroke="none" d="M470.191,-384.202C461.812,-375.33 451.543,-364.457 442.407,-354.784"/>
<path fill="none" stroke="black" d="M471.645,-382.829C463.266,-373.957 452.997,-363.084 443.861,-353.41"/>
<polygon fill="black" stroke="black" points="444.792,-352.212 435.381,-347.345 439.703,-357.018 444.792,-352.212"/>
</g>
<!-- HuffmanCode&#45;&gt;CodingSet -->
<g id="edge42" class="edge"><title>HuffmanCode&#45;&gt;CodingSet</title>
<path fill="none" stroke="grey" d="M144.162,-34C150.078,-34 155.994,-34 161.909,-34"/>
</g>
<!-- SymbolINT4 -->
<g id="node45" class="node"><title>SymbolINT4</title>
<ellipse fill="none" stroke="black" cx="342" cy="-34" rx="59.8749" ry="18"/>
<text text-anchor="middle" x="342" y="-29.4" font-family="Times New Roman,serif" font-size="14.00">SymbolINT4</text>
</g>
<!-- CompositeSymbol&#45;&gt;SymbolINT4 -->
<g id="edge51" class="edge"><title>CompositeSymbol&#45;&gt;SymbolINT4</title>
<path fill="none" stroke="grey" d="M764.213,-106.328C643.222,-100.661 427.303,-89.8302 411,-84 395.268,-78.3739 379.988,-67.9806 367.822,-58.1214"/>
<polygon fill="grey" stroke="grey" points="369.826,-55.2319 359.931,-51.4462 365.305,-60.5765 369.826,-55.2319"/>
</g>
<!-- SymbolINT8 -->
<g id="node47" class="node"><title>SymbolINT8</title>
<ellipse fill="none" stroke="black" cx="480" cy="-34" rx="59.8749" ry="18"/>
<text text-anchor="middle" x="480" y="-29.4" font-family="Times New Roman,serif" font-size="14.00">SymbolINT8</text>
</g>
<!-- CompositeSymbol&#45;&gt;SymbolINT8 -->
<g id="edge53" class="edge"><title>CompositeSymbol&#45;&gt;SymbolINT8</title>
<path fill="none" stroke="grey" d="M763.457,-107.697C689.672,-104.735 586.937,-98.1648 549,-84 533.348,-78.1559 518.077,-67.737 505.897,-57.9172"/>
<polygon fill="grey" stroke="grey" points="507.901,-55.0292 497.992,-51.2781 503.399,-60.3896 507.901,-55.0292"/>
</g>
<!-- SymbolINT12 -->
<g id="node49" class="node"><title>SymbolINT12</title>
<ellipse fill="none" stroke="black" cx="623" cy="-34" rx="65.0696" ry="18"/>
<text text-anchor="middle" x="623" y="-29.4" font-family="Times New Roman,serif" font-size="14.00">SymbolINT12</text>
</g>
<!-- CompositeSymbol&#45;&gt;SymbolINT12 -->
<g id="edge55" class="edge"><title>CompositeSymbol&#45;&gt;SymbolINT12</title>
<path fill="none" stroke="grey" d="M769.143,-102.919C745.453,-99.0711 719.615,-93.1394 697,-84 680.844,-77.4711 664.612,-67.0387 651.484,-57.3882"/>
<polygon fill="grey" stroke="grey" points="653.42,-54.4635 643.337,-51.2083 649.189,-60.0405 653.42,-54.4635"/>
</g>
<!-- SymbolINT16 -->
<g id="node51" class="node"><title>SymbolINT16</title>
<ellipse fill="none" stroke="black" cx="771" cy="-34" rx="65.0696" ry="18"/>
<text text-anchor="middle" x="771" y="-29.4" font-family="Times New Roman,serif" font-size="14.00">SymbolINT16</text>
</g>
<!-- CompositeSymbol&#45;&gt;SymbolINT16 -->
<g id="edge57" class="edge"><title>CompositeSymbol&#45;&gt;SymbolINT16</title>
<path fill="none" stroke="grey" d="M827.837,-92.373C818.124,-82.3972 805.821,-69.7617 795.147,-58.7998"/>
<polygon fill="grey" stroke="grey" points="797.554,-56.2544 788.07,-51.5314 792.539,-61.1378 797.554,-56.2544"/>
</g>
<!-- SymbolINT24 -->
<g id="node53" class="node"><title>SymbolINT24</title>
<ellipse fill="none" stroke="black" cx="919" cy="-34" rx="65.0696" ry="18"/>
<text text-anchor="middle" x="919" y="-29.4" font-family="Times New Roman,serif" font-size="14.00">SymbolINT24</text>
</g>
<!-- CompositeSymbol&#45;&gt;SymbolINT24 -->
<g id="edge59" class="edge"><title>CompositeSymbol&#45;&gt;SymbolINT24</title>
<path fill="none" stroke="grey" d="M862.163,-92.373C871.876,-82.3972 884.179,-69.7617 894.853,-58.7998"/>
<polygon fill="grey" stroke="grey" points="897.461,-61.1378 901.93,-51.5314 892.446,-56.2544 897.461,-61.1378"/>
</g>
<!-- SymbolINT32 -->
<g id="node55" class="node"><title>SymbolINT32</title>
<ellipse fill="none" stroke="black" cx="1067" cy="-34" rx="65.0696" ry="18"/>
<text text-anchor="middle" x="1067" y="-29.4" font-family="Times New Roman,serif" font-size="14.00">SymbolINT32</text>
</g>
<!-- CompositeSymbol&#45;&gt;SymbolINT32 -->
<g id="edge61" class="edge"><title>CompositeSymbol&#45;&gt;SymbolINT32</title>
<path fill="none" stroke="grey" d="M920.857,-102.919C944.547,-99.0711 970.385,-93.1394 993,-84 1009.16,-77.4711 1025.39,-67.0387 1038.52,-57.3882"/>
<polygon fill="grey" stroke="grey" points="1040.81,-60.0405 1046.66,-51.2083 1036.58,-54.4635 1040.81,-60.0405"/>
</g>
<!-- SymbolINT48 -->
<g id="node57" class="node"><title>SymbolINT48</title>
<ellipse fill="none" stroke="black" cx="1215" cy="-34" rx="65.0696" ry="18"/>
<text text-anchor="middle" x="1215" y="-29.4" font-family="Times New Roman,serif" font-size="14.00">SymbolINT48</text>
</g>
<!-- CompositeSymbol&#45;&gt;SymbolINT48 -->
<g id="edge63" class="edge"><title>CompositeSymbol&#45;&gt;SymbolINT48</title>
<path fill="none" stroke="grey" d="M926.441,-107.417C1000.15,-104.251 1102.83,-97.5396 1141,-84 1157.66,-78.089 1174.16,-67.5243 1187.34,-57.6241"/>
<polygon fill="grey" stroke="grey" points="1189.75,-60.1797 1195.49,-51.2699 1185.45,-54.6599 1189.75,-60.1797"/>
</g>
<!-- SymbolINT64 -->
<g id="node59" class="node"><title>SymbolINT64</title>
<ellipse fill="none" stroke="black" cx="1363" cy="-34" rx="65.0696" ry="18"/>
<text text-anchor="middle" x="1363" y="-29.4" font-family="Times New Roman,serif" font-size="14.00">SymbolINT64</text>
</g>
<!-- CompositeSymbol&#45;&gt;SymbolINT64 -->
<g id="edge65" class="edge"><title>CompositeSymbol&#45;&gt;SymbolINT64</title>
<path fill="none" stroke="grey" d="M926.508,-107.562C1045.35,-103.653 1255.72,-95.2633 1289,-84 1305.87,-78.2914 1322.49,-67.6422 1335.7,-57.634"/>
<polygon fill="grey" stroke="grey" points="1338.17,-60.147 1343.85,-51.2081 1333.83,-54.6492 1338.17,-60.147"/>
</g>
<!-- SymbolHuffman -->
<g id="node61" class="node"><title>SymbolHuffman</title>
<ellipse fill="none" stroke="black" cx="1519" cy="-34" rx="73.1194" ry="18"/>
<text text-anchor="middle" x="1519" y="-29.4" font-family="Times New Roman,serif" font-size="14.00">SymbolHuffman</text>
</g>
<!-- CompositeSymbol&#45;&gt;SymbolHuffman -->
<g id="edge67" class="edge"><title>CompositeSymbol&#45;&gt;SymbolHuffman</title>
<path fill="none" stroke="grey" d="M926.872,-108.669C1077.96,-105.879 1389.58,-98.4475 1437,-84 1455.67,-78.313 1474.4,-67.3762 1489.24,-57.1781"/>
<polygon fill="grey" stroke="grey" points="1491.38,-59.9524 1497.5,-51.3042 1487.33,-54.2481 1491.38,-59.9524"/>
</g>
<!-- LZW&#45;&gt;PIECompress -->
<g id="edge83" class="edge"><title>LZW&#45;&gt;PIECompress</title>
<path fill="none" stroke="grey" d="M567.063,-254C572.964,-254 578.866,-254 584.768,-254"/>
</g>
<!-- PIECompress&#45;&gt;RLE -->
<g id="edge84" class="edge"><title>PIECompress&#45;&gt;RLE</title>
<path fill="none" stroke="grey" d="M711.164,-254C717.019,-254 722.873,-254 728.728,-254"/>
</g>
<!-- RLE&#45;&gt;TxtCompress -->
<g id="edge85" class="edge"><title>RLE&#45;&gt;TxtCompress</title>
<path fill="none" stroke="grey" d="M787.219,-254C793.109,-254 798.999,-254 804.89,-254"/>
</g>
<!-- TxtCompress&#45;&gt;PatternCompress -->
<g id="edge86" class="edge"><title>TxtCompress&#45;&gt;PatternCompress</title>
<path fill="none" stroke="grey" d="M931.168,-254C937.032,-254 942.897,-254 948.761,-254"/>
</g>
</g>
</svg>
